<svg width="46" height="45" viewBox="0 0 46 45" fill="none" xmlns="http://www.w3.org/2000/svg">
<path d="M7.37426 0.254045C4.61286 0.26605 2.38404 2.51434 2.39604 5.27573C2.40805 8.03713 4.65633 10.266 7.41773 10.254L7.37426 0.254045ZM40.523 5.10999L45.523 5.08825C45.5172 3.76218 44.9849 2.49271 44.0431 1.55912C43.1014 0.625519 41.8273 0.104268 40.5013 0.110033L40.523 5.10999ZM35.667 38.2597C35.679 41.0211 37.9273 43.25 40.6887 43.238C43.4501 43.226 45.6789 40.9777 45.6669 38.2163L35.667 38.2597ZM44.038 8.66693C46.0019 6.72564 46.0202 3.55987 44.0789 1.59598C42.1377 -0.36791 38.9719 -0.386232 37.008 1.55506L44.038 8.66693ZM1.818 36.3401C-0.145894 38.2813 -0.164217 41.4471 1.77707 43.411C3.71836 45.3749 6.88413 45.3932 8.84802 43.4519L1.818 36.3401ZM7.41773 10.254L40.5447 10.1099L40.5013 0.110033L7.37426 0.254045L7.41773 10.254ZM35.5231 5.13172L35.667 38.2597L45.6669 38.2163L45.523 5.08825L35.5231 5.13172ZM37.008 1.55506L1.818 36.3401L8.84802 43.4519L44.038 8.66693L37.008 1.55506Z" fill="#F4D069"/>
</svg>
